<svg xmlns="http://www.w3.org/2000/svg" width="256" height="256" viewBox="0 0 256 256" fill="none"><g clip-path="url(#clip0_2204_5)">
<rect x="6" y="6" width="244" height="244" rx="26" fill="white" stroke="black" stroke-width="12"></rect>
<rect x="28" y="158" width="40" height="70" rx="12" fill="#E4E4E4"></rect>
<rect x="81" y="175" width="40" height="53" rx="12" fill="#E4E4E4"></rect>
<rect x="134" y="94" width="40" height="134" rx="12" fill="#E4E4E4"></rect>
<rect x="188" y="28" width="40" height="200" rx="12" fill="#9CDE84"></rect>
<path d="M47.4375 34.4062C51.375 34.4062 54.5521 35.9375 56.9688 39C59.4062 42.0625 60.625 46.5521 60.625 52.4688C60.625 56.4271 60.0521 59.7604 58.9062 62.4688C57.7604 65.1562 56.1771 67.1875 54.1562 68.5625C52.1354 69.9375 49.8125 70.625 47.1875 70.625C45.5 70.625 44.0521 70.4167 42.8438 70C41.6354 69.5625 40.6042 69.0104 39.75 68.3438C38.8958 67.6562 38.1562 66.9271 37.5312 66.1562H37.0312C37.1979 66.9896 37.3229 67.8438 37.4062 68.7188C37.4896 69.5938 37.5312 70.4479 37.5312 71.2812V85.375H28V35.0625H35.75L37.0938 39.5938H37.5312C38.1562 38.6562 38.9167 37.7917 39.8125 37C40.7083 36.2083 41.7812 35.5833 43.0312 35.125C44.3021 34.6458 45.7708 34.4062 47.4375 34.4062ZM44.375 42.0312C42.7083 42.0312 41.3854 42.375 40.4062 43.0625C39.4271 43.75 38.7083 44.7812 38.25 46.1562C37.8125 47.5312 37.5729 49.2708 37.5312 51.375V52.4062C37.5312 54.6562 37.7396 56.5625 38.1562 58.125C38.5938 59.6875 39.3125 60.875 40.3125 61.6875C41.3333 62.5 42.7292 62.9062 44.5 62.9062C45.9583 62.9062 47.1562 62.5 48.0938 61.6875C49.0312 60.875 49.7292 59.6875 50.1875 58.125C50.6667 56.5417 50.9062 54.6146 50.9062 52.3438C50.9062 48.9271 50.375 46.3542 49.3125 44.625C48.25 42.8958 46.6042 42.0312 44.375 42.0312Z" fill="black"></path>
<path d="M100.562 35.0625V70H93.25L91.9688 65.5312H91.4688C90.7188 66.7188 89.7812 67.6875 88.6562 68.4375C87.5312 69.1875 86.2917 69.7396 84.9375 70.0938C83.5833 70.4479 82.1771 70.625 80.7188 70.625C78.2188 70.625 76.0417 70.1875 74.1875 69.3125C72.3333 68.4167 70.8854 67.0312 69.8438 65.1562C68.8229 63.2812 68.3125 60.8438 68.3125 57.8438V35.0625H77.8438V55.4688C77.8438 57.9688 78.2917 59.8542 79.1875 61.125C80.0833 62.3958 81.5104 63.0312 83.4688 63.0312C85.4062 63.0312 86.9271 62.5938 88.0312 61.7188C89.1354 60.8229 89.9062 59.5208 90.3438 57.8125C90.8021 56.0833 91.0312 53.9792 91.0312 51.5V35.0625H100.562Z" fill="black"></path>
<path d="M134.938 59.625C134.938 62 134.375 64.0104 133.25 65.6562C132.146 67.2812 130.49 68.5208 128.281 69.375C126.073 70.2083 123.323 70.625 120.031 70.625C117.594 70.625 115.5 70.4688 113.75 70.1562C112.021 69.8438 110.271 69.3229 108.5 68.5938V60.7188C110.396 61.5729 112.427 62.2812 114.594 62.8438C116.781 63.3854 118.698 63.6562 120.344 63.6562C122.198 63.6562 123.521 63.3854 124.312 62.8438C125.125 62.2812 125.531 61.5521 125.531 60.6562C125.531 60.0729 125.365 59.5521 125.031 59.0938C124.719 58.6146 124.031 58.0833 122.969 57.5C121.906 56.8958 120.24 56.1146 117.969 55.1562C115.781 54.2396 113.979 53.3125 112.562 52.375C111.167 51.4375 110.125 50.3333 109.438 49.0625C108.771 47.7708 108.438 46.1354 108.438 44.1562C108.438 40.9271 109.688 38.5 112.188 36.875C114.708 35.2292 118.073 34.4062 122.281 34.4062C124.448 34.4062 126.51 34.625 128.469 35.0625C130.448 35.5 132.479 36.1979 134.562 37.1562L131.688 44.0312C129.958 43.2812 128.323 42.6667 126.781 42.1875C125.26 41.7083 123.708 41.4688 122.125 41.4688C120.729 41.4688 119.677 41.6562 118.969 42.0312C118.26 42.4062 117.906 42.9792 117.906 43.75C117.906 44.3125 118.083 44.8125 118.438 45.25C118.812 45.6875 119.521 46.1771 120.562 46.7188C121.625 47.2396 123.177 47.9167 125.219 48.75C127.198 49.5625 128.917 50.4167 130.375 51.3125C131.833 52.1875 132.958 53.2812 133.75 54.5938C134.542 55.8854 134.938 57.5625 134.938 59.625Z" fill="black"></path>
<path d="M151.906 21.375V31.2812C151.906 33.0104 151.844 34.6562 151.719 36.2188C151.615 37.7812 151.531 38.8854 151.469 39.5312H151.969C152.719 38.3229 153.604 37.3438 154.625 36.5938C155.667 35.8438 156.812 35.2917 158.062 34.9375C159.312 34.5833 160.656 34.4062 162.094 34.4062C164.615 34.4062 166.812 34.8542 168.688 35.75C170.562 36.625 172.021 38.0104 173.062 39.9062C174.104 41.7812 174.625 44.2188 174.625 47.2188V70H165.094V49.5938C165.094 47.0938 164.635 45.2083 163.719 43.9375C162.802 42.6667 161.385 42.0312 159.469 42.0312C157.552 42.0312 156.042 42.4792 154.938 43.375C153.833 44.25 153.052 45.5521 152.594 47.2812C152.135 48.9896 151.906 51.0833 151.906 53.5625V70H142.375V21.375H151.906Z" fill="black"></path>
<path d="M37.5312 142H28V93.375H37.5312V142Z" fill="black"></path>
<path d="M79.3125 124.469C79.3125 127.385 78.9167 129.969 78.125 132.219C77.3542 134.469 76.2188 136.375 74.7188 137.938C73.2396 139.479 71.4479 140.646 69.3438 141.438C67.2604 142.229 64.9062 142.625 62.2812 142.625C59.8229 142.625 57.5625 142.229 55.5 141.438C53.4583 140.646 51.6771 139.479 50.1562 137.938C48.6562 136.375 47.4896 134.469 46.6562 132.219C45.8438 129.969 45.4375 127.385 45.4375 124.469C45.4375 120.594 46.125 117.312 47.5 114.625C48.875 111.938 50.8333 109.896 53.375 108.5C55.9167 107.104 58.9479 106.406 62.4688 106.406C65.7396 106.406 68.6354 107.104 71.1562 108.5C73.6979 109.896 75.6875 111.938 77.125 114.625C78.5833 117.312 79.3125 120.594 79.3125 124.469ZM55.1562 124.469C55.1562 126.76 55.4062 128.688 55.9062 130.25C56.4062 131.812 57.1875 132.99 58.25 133.781C59.3125 134.573 60.6979 134.969 62.4062 134.969C64.0938 134.969 65.4583 134.573 66.5 133.781C67.5625 132.99 68.3333 131.812 68.8125 130.25C69.3125 128.688 69.5625 126.76 69.5625 124.469C69.5625 122.156 69.3125 120.24 68.8125 118.719C68.3333 117.177 67.5625 116.021 66.5 115.25C65.4375 114.479 64.0521 114.094 62.3438 114.094C59.8229 114.094 57.9896 114.958 56.8438 116.688C55.7188 118.417 55.1562 121.01 55.1562 124.469Z" fill="black"></path>
<path d="M97.4062 157.375C92.5312 157.375 88.8021 156.521 86.2188 154.812C83.6562 153.125 82.375 150.75 82.375 147.688C82.375 145.583 83.0312 143.823 84.3438 142.406C85.6562 140.99 87.5833 139.979 90.125 139.375C89.1458 138.958 88.2917 138.281 87.5625 137.344C86.8333 136.385 86.4688 135.375 86.4688 134.312C86.4688 132.979 86.8542 131.875 87.625 131C88.3958 130.104 89.5104 129.229 90.9688 128.375C89.1354 127.583 87.6771 126.312 86.5938 124.562C85.5312 122.812 85 120.75 85 118.375C85 115.833 85.5521 113.677 86.6562 111.906C87.7812 110.115 89.4062 108.75 91.5312 107.812C93.6771 106.875 96.2812 106.406 99.3438 106.406C99.9896 106.406 100.74 106.448 101.594 106.531C102.448 106.615 103.229 106.708 103.938 106.812C104.667 106.917 105.156 107 105.406 107.062H117.594V111.906L112.125 113.312C112.625 114.083 113 114.906 113.25 115.781C113.5 116.656 113.625 117.583 113.625 118.562C113.625 122.312 112.312 125.24 109.688 127.344C107.083 129.427 103.458 130.469 98.8125 130.469C97.7083 130.406 96.6667 130.323 95.6875 130.219C95.2083 130.594 94.8438 130.99 94.5938 131.406C94.3438 131.823 94.2188 132.26 94.2188 132.719C94.2188 133.177 94.4062 133.562 94.7812 133.875C95.1771 134.167 95.7604 134.396 96.5312 134.562C97.3229 134.708 98.3021 134.781 99.4688 134.781H105.406C109.24 134.781 112.156 135.604 114.156 137.25C116.177 138.896 117.188 141.312 117.188 144.5C117.188 148.583 115.479 151.75 112.062 154C108.667 156.25 103.781 157.375 97.4062 157.375ZM97.8125 151.156C100.083 151.156 102.031 150.938 103.656 150.5C105.302 150.083 106.562 149.479 107.438 148.688C108.312 147.917 108.75 146.99 108.75 145.906C108.75 145.031 108.49 144.333 107.969 143.812C107.469 143.312 106.698 142.958 105.656 142.75C104.635 142.542 103.323 142.438 101.719 142.438H96.7812C95.6146 142.438 94.5625 142.625 93.625 143C92.7083 143.375 91.9792 143.896 91.4375 144.562C90.8958 145.25 90.625 146.042 90.625 146.938C90.625 148.25 91.25 149.281 92.5 150.031C93.7708 150.781 95.5417 151.156 97.8125 151.156ZM99.3438 124.656C101.135 124.656 102.448 124.104 103.281 123C104.115 121.896 104.531 120.396 104.531 118.5C104.531 116.396 104.094 114.823 103.219 113.781C102.365 112.719 101.073 112.188 99.3438 112.188C97.5938 112.188 96.2812 112.719 95.4062 113.781C94.5312 114.823 94.0938 116.396 94.0938 118.5C94.0938 120.396 94.5208 121.896 95.375 123C96.25 124.104 97.5729 124.656 99.3438 124.656Z" fill="black"></path>
</g><defs>
<clipPath id="clip0_2204_5">
<rect width="256" height="256" fill="white"></rect>
</clipPath>
</defs></svg>