<svg xmlns="http://www.w3.org/2000/svg" width="256" height="256" viewBox="0 0 256 256" fill="none"><metadata><rdf:RDF xmlns:rdf="http://www.w3.org/1999/02/22-rdf-syntax-ns#" xmlns:dc="http://purl.org/dc/elements/1.1/"><rdf:Description><dc:creator>RealFaviconGenerator</dc:creator><dc:source>https://realfavicongenerator.net</dc:source></rdf:Description></rdf:RDF></metadata><g clip-path="url(#clip0_2209_16)">
<rect x="6" y="6" width="244" height="244" rx="26" fill="white" stroke="black" stroke-width="12"></rect>
<rect x="28" y="28" width="200" height="40" rx="12" fill="#E4E4E4"></rect>
<rect x="28" y="78" width="200" height="40" rx="12" fill="#E4E4E4"></rect>
<rect x="28" y="128" width="200" height="40" rx="12" fill="#9CDE84"></rect>
<path d="M45.7982 228.547C42.981 228.547 40.4206 227.818 38.1171 226.359C35.8136 224.901 33.9741 222.714 32.5986 219.797C31.2231 216.88 30.5354 213.259 30.5354 208.934C30.5354 204.443 31.248 200.747 32.6732 197.847C34.0984 194.947 35.9627 192.801 38.2662 191.409C40.5863 190.017 43.0804 189.321 45.7485 189.321C47.7537 189.321 49.4689 189.669 50.8941 190.365C52.3193 191.045 53.4959 191.923 54.4239 193C55.3519 194.077 56.0562 195.196 56.5368 196.356H56.7854V177.091H68.9409V228H56.9097V221.81H56.5368C56.0231 222.987 55.2939 224.089 54.3493 225.117C53.4047 226.144 52.2198 226.973 50.7946 227.602C49.386 228.232 47.7205 228.547 45.7982 228.547ZM50.024 219.076C51.4989 219.076 52.7584 218.662 53.8024 217.833C54.8465 216.988 55.6502 215.803 56.2137 214.278C56.7771 212.754 57.0588 210.964 57.0588 208.909C57.0588 206.821 56.7771 205.023 56.2137 203.515C55.6668 202.007 54.8631 200.847 53.8024 200.035C52.7584 199.223 51.4989 198.817 50.024 198.817C48.516 198.817 47.2399 199.231 46.1959 200.06C45.1519 200.888 44.3564 202.057 43.8095 203.565C43.2792 205.073 43.0141 206.854 43.0141 208.909C43.0141 210.964 43.2875 212.754 43.8344 214.278C44.3813 215.803 45.1685 216.988 46.1959 217.833C47.2399 218.662 48.516 219.076 50.024 219.076Z" fill="black"></path>
<path d="M94.4763 228.721C90.4824 228.721 87.0355 227.934 84.1354 226.359C81.2518 224.769 79.0312 222.506 77.4734 219.573C75.9322 216.623 75.1616 213.118 75.1616 209.058C75.1616 205.114 75.9405 201.667 77.4983 198.717C79.0561 195.751 81.2518 193.447 84.0856 191.807C86.9195 190.15 90.2587 189.321 94.1034 189.321C96.8212 189.321 99.307 189.744 101.561 190.589C103.815 191.434 105.762 192.685 107.402 194.342C109.043 196 110.319 198.046 111.231 200.482C112.142 202.902 112.598 205.678 112.598 208.81V211.842H79.4124V204.783H101.287C101.271 203.49 100.964 202.338 100.368 201.327C99.771 200.317 98.9507 199.529 97.9067 198.966C96.8792 198.386 95.6943 198.096 94.352 198.096C92.9931 198.096 91.775 198.402 90.6979 199.016C89.6207 199.612 88.7672 200.433 88.1375 201.477C87.5078 202.504 87.1763 203.672 87.1432 204.982V212.166C87.1432 213.723 87.4498 215.09 88.0629 216.267C88.6761 217.427 89.5461 218.33 90.673 218.977C91.7999 219.623 93.1422 219.946 94.7 219.946C95.7772 219.946 96.7549 219.797 97.6332 219.499C98.5115 219.2 99.2656 218.761 99.8953 218.181C100.525 217.601 100.997 216.889 101.312 216.043L112.473 216.367C112.009 218.869 110.99 221.048 109.416 222.904C107.858 224.744 105.812 226.177 103.276 227.205C100.74 228.215 97.8072 228.721 94.4763 228.721Z" fill="black"></path>
<path d="M118.806 228V177.091H130.962V196.356H131.21C131.707 195.196 132.412 194.077 133.323 193C134.251 191.923 135.428 191.045 136.853 190.365C138.295 189.669 140.018 189.321 142.023 189.321C144.675 189.321 147.152 190.017 149.456 191.409C151.776 192.801 153.649 194.947 155.074 197.847C156.499 200.747 157.212 204.443 157.212 208.934C157.212 213.259 156.524 216.88 155.148 219.797C153.789 222.714 151.95 224.901 149.63 226.359C147.326 227.818 144.766 228.547 141.949 228.547C140.026 228.547 138.361 228.232 136.952 227.602C135.544 226.973 134.359 226.144 133.398 225.117C132.453 224.089 131.724 222.987 131.21 221.81H130.837V228H118.806ZM130.713 208.909C130.713 210.964 130.986 212.754 131.533 214.278C132.097 215.803 132.9 216.988 133.944 217.833C135.005 218.662 136.273 219.076 137.748 219.076C139.239 219.076 140.507 218.662 141.551 217.833C142.595 216.988 143.382 215.803 143.913 214.278C144.459 212.754 144.733 210.964 144.733 208.909C144.733 206.854 144.459 205.073 143.913 203.565C143.382 202.057 142.595 200.888 141.551 200.06C140.524 199.231 139.256 198.817 137.748 198.817C136.256 198.817 134.989 199.223 133.944 200.035C132.9 200.847 132.097 202.007 131.533 203.515C130.986 205.023 130.713 206.821 130.713 208.909Z" fill="black"></path>
<path d="M185.133 189.818V198.767H161.046V189.818H185.133ZM166.092 180.67H178.248V215.994C178.248 216.739 178.364 217.344 178.596 217.808C178.844 218.256 179.2 218.579 179.664 218.778C180.129 218.96 180.684 219.051 181.33 219.051C181.794 219.051 182.283 219.01 182.797 218.927C183.327 218.827 183.725 218.745 183.99 218.678L185.829 227.453C185.249 227.619 184.429 227.826 183.368 228.075C182.324 228.323 181.073 228.481 179.615 228.547C176.764 228.679 174.32 228.348 172.282 227.553C170.26 226.741 168.71 225.481 167.633 223.774C166.573 222.067 166.059 219.921 166.092 217.336V180.67Z" fill="black"></path>
<path d="M224.191 201.477L213.03 201.775C212.914 200.979 212.599 200.275 212.085 199.662C211.572 199.032 210.901 198.543 210.072 198.195C209.26 197.831 208.315 197.648 207.238 197.648C205.83 197.648 204.628 197.93 203.634 198.494C202.656 199.057 202.175 199.819 202.192 200.781C202.175 201.526 202.474 202.173 203.087 202.719C203.717 203.266 204.835 203.706 206.443 204.037L213.801 205.429C217.612 206.158 220.446 207.368 222.302 209.058C224.175 210.749 225.119 212.986 225.136 215.77C225.119 218.388 224.34 220.667 222.799 222.606C221.275 224.545 219.187 226.053 216.535 227.13C213.884 228.191 210.851 228.721 207.437 228.721C201.985 228.721 197.684 227.602 194.536 225.365C191.404 223.111 189.614 220.095 189.166 216.317L201.173 216.019C201.438 217.411 202.126 218.471 203.236 219.2C204.346 219.929 205.763 220.294 207.487 220.294C209.045 220.294 210.312 220.004 211.29 219.424C212.268 218.844 212.765 218.073 212.781 217.112C212.765 216.251 212.384 215.563 211.638 215.049C210.892 214.519 209.724 214.104 208.133 213.806L201.471 212.538C197.643 211.842 194.793 210.558 192.92 208.685C191.047 206.796 190.119 204.393 190.136 201.477C190.119 198.925 190.799 196.745 192.174 194.939C193.55 193.116 195.505 191.724 198.041 190.763C200.576 189.802 203.567 189.321 207.014 189.321C212.185 189.321 216.262 190.407 219.245 192.577C222.228 194.732 223.876 197.698 224.191 201.477Z" fill="black"></path>
<rect x="28" y="28" width="153" height="40" rx="12" fill="#F16969"></rect>
<rect x="28" y="79" width="48" height="40" rx="12" fill="#F16969"></rect>
</g><defs>
<clipPath id="clip0_2209_16">
<rect width="256" height="256" fill="white"></rect>
</clipPath>
</defs></svg>